# xmcd CD database file
# Copyright (C) 1995-1998 Ti Kan
#
# Track frame offsets:
#	182
#	14035
#	30160
#	41185
#	50185
#	69235
#	79510
#	96685
#	109885
#	119035
#	134035
#	150610
#	172355
#	193210
#	206857
#	213310
#	226585
#
# Disc length: 3327 seconds
#
# Revision: 1
# Processed by: cddbd v1.4PL0 Copyright (c) Steve Scherf et al.
# Submitted via: CDex 1.30Release
#
DISCID=060cfd11
DTITLE=Hatfitz - Blooze Bitz
DYEAR=1900
DGENRE=Blues
TTITLE0=Houndburp
TTITLE1=Stuff Tilin'
TTITLE2=Little red
TTITLE3=Pen that Pig
TTITLE4=Jittabug
TTITLE5=Jim Canan's
TTITLE6=Downtime
TTITLE7=Had my way
TTITLE8=Germa
TTITLE9=Twist it
TTITLE10=Nose pickin' review
TTITLE11=!/2
TTITLE12=Fixin'
TTITLE13=No way
TTITLE14=Bring it with you
TTITLE15=S.O.S.
TTITLE16=Hospital Blooze
EXTD=ID3G:   0
EXTT0=
EXTT1=
EXTT2=
EXTT3=
EXTT4=
EXTT5=
EXTT6=
EXTT7=
EXTT8=
EXTT9=
EXTT10=
EXTT11=
EXTT12=
EXTT13=
EXTT14=
EXTT15=
EXTT16=
PLAYORDER=
